<svg id="Group_3439" data-name="Group 3439" xmlns="http://www.w3.org/2000/svg" xmlns:xlink="http://www.w3.org/1999/xlink" width="135.466" height="51.295" viewBox="0 0 135.466 51.295">
  <defs>
    <clipPath id="clip-path">
      <rect id="Rectangle_424" data-name="Rectangle 424" width="135.466" height="51.295" fill="#03a63d"/>
    </clipPath>
  </defs>
  <g id="Group_3" data-name="Group 3" clip-path="url(#clip-path)">
    <path id="Path_46" data-name="Path 46" d="M29.355,50.628c-2.789,0-5.044-.069-7.291.028a1.445,1.445,0,0,1-1.749-1.407c-.152-.838-.424-1.656-.7-2.706-.448.457-.762.723-1.009,1.039C15,52.2,8.307,51.87,4.784,50.206a9.12,9.12,0,0,1-4.6-10.033,122.486,122.486,0,0,1,4.1-16.324c2.4-7.082,7.02-9.625,15.248-9.307,2.819.109,5.466.59,7.543,3.092,1.043-4.069,2.092-7.862,2.906-11.7.1-.49-.951-1.3-1.6-1.815A1.957,1.957,0,0,1,27.4,1.98c.28-1.525.951-2,2.564-1.918C32.867.207,35.787.1,38.838.1c-2.094,8.063-4.151,15.956-6.193,23.854-1.6,6.175-3.215,12.345-4.736,18.538-.453,1.843-.71,3.673,1.373,5.1.495.338.073,1.91.073,3.037M25.106,24.551c-.539-1.114-.835-2.626-1.775-3.5-2.793-2.6-8.205-1.382-9.27,2.2-1.81,6.1-3.391,12.268-4.73,18.475-.788,3.651,2.119,5.754,5.832,4.537a6.9,6.9,0,0,0,2.314-1.27,11.275,11.275,0,0,0,4.173-6.459c.293-1.584.813-3.129,1.2-4.7.735-2.977,1.448-5.958,2.254-9.286" transform="translate(0 -0.036)" fill="#03a63d"/>
    <path id="Path_47" data-name="Path 47" d="M308.748,29.9a34.221,34.221,0,0,0,12.568-13.1,2.8,2.8,0,0,1,3.119-1.746,23.709,23.709,0,0,0,4.052,0,2.439,2.439,0,0,1,2.813,2,2.1,2.1,0,0,1-2.073,2.572,9.4,9.4,0,0,0-7.057,4.627,20.173,20.173,0,0,1-3.377,3.61,1.682,1.682,0,0,0-.435,2.246q2.712,6.368,5.282,12.792a5.4,5.4,0,0,0,2.522,3.067A1.642,1.642,0,0,1,325.969,49c-.746.376-1.54.662-2.3,1-3.543,1.588-5.807.253-7.222-2.941-1.932-4.362-3.564-8.846-5.352-13.347-2.429.867-4.462,1.766-4.757,4.626a32.431,32.431,0,0,1-1.468,5.807,1.522,1.522,0,0,0,.858,2.1c1.31.7,1.156,2.182-.135,3.035-2.358,1.56-5.015,1.374-7.646,1.263-.92-.039-1.962-2.573-1.643-3.8q3.079-11.848,6.171-23.693c1.284-4.916,2.547-9.837,3.9-14.735a1.713,1.713,0,0,0-1.063-2.4c-2.286-1.112-2.33-1.359-1.455-3.576a1.563,1.563,0,0,1,.675-.859A19.65,19.65,0,0,1,313.928.1c1.006.1,1.826,2.305,1.459,3.716q-1.693,6.512-3.4,13.021-1.558,5.961-3.115,11.922a10.449,10.449,0,0,0-.124,1.144" transform="translate(-195.884 0)" fill="#03a63d"/>
    <path id="Path_48" data-name="Path 48" d="M231.112,64.609c-.863,5.218-1.8,10.414-4.233,15.236-3.2,6.346-10.6,8.832-17.1,6.835-5.437-1.67-7.74-6.976-6.867-12.33a78.229,78.229,0,0,1,3.035-11.425c1.884-5.811,6.087-8.884,12.415-9.2a21.752,21.752,0,0,1,6.029.4,8.588,8.588,0,0,1,6.83,9.188c-.019.431-.07.862-.106,1.293m-21.8,12c-.036,5.972,2.99,8.1,7.317,6.413a6.3,6.3,0,0,0,3.695-4.38c1.224-4.14,2.363-8.307,3.38-12.5a26.964,26.964,0,0,0,.679-5.578,3.459,3.459,0,0,0-2.756-3.478c-4.288-.491-6.4-.432-8.174,3.751a41.939,41.939,0,0,0-1.768,6.051c-.929,3.655-1.791,7.326-2.372,9.718" transform="translate(-134.051 -36.268)" fill="#ff7062"/>
    <path id="Path_49" data-name="Path 49" d="M135.5,64.609c-.863,5.218-1.8,10.414-4.233,15.236-3.2,6.346-10.6,8.832-17.1,6.835-5.437-1.67-7.74-6.976-6.867-12.33a78.236,78.236,0,0,1,3.035-11.425c1.884-5.811,6.087-8.884,12.415-9.2a21.752,21.752,0,0,1,6.029.4,8.588,8.588,0,0,1,6.83,9.188c-.019.431-.07.862-.106,1.293m-21.8,12c-.036,5.972,2.99,8.1,7.317,6.413a6.3,6.3,0,0,0,3.695-4.38c1.224-4.14,2.363-8.307,3.38-12.5a26.966,26.966,0,0,0,.679-5.578,3.459,3.459,0,0,0-2.756-3.478c-4.288-.491-6.4-.432-8.174,3.751a41.937,41.937,0,0,0-1.768,6.051c-.93,3.655-1.791,7.326-2.372,9.718" transform="translate(-70.829 -36.268)" fill="#ff7062"/>
  </g>
</svg>
