<svg xmlns="http://www.w3.org/2000/svg" width="30" height="30" viewBox="0 0 30 30">
  <g id="Group_3475" data-name="Group 3475" transform="translate(-303 -43)">
    <rect id="bg" width="30" height="30" rx="8" transform="translate(303 43)" fill="#ced1d4"/>
    <g id="bell" transform="translate(310.421 50)">
      <path id="bell-2" data-name="bell" d="M17.263,10.966V8.416c0-2.346-2-4.349-4.737-4.74V2.8a.884.884,0,0,0-.947-.8.884.884,0,0,0-.947.8v.874C7.9,4.067,5.9,6.07,5.895,8.416v2.55A2.469,2.469,0,0,0,4,13.228v1.6a.884.884,0,0,0,.947.8H7.922A3.744,3.744,0,0,0,11.579,18a3.744,3.744,0,0,0,3.657-2.367h2.975a.884.884,0,0,0,.947-.8v-1.6a2.469,2.469,0,0,0-1.895-2.262ZM7.789,8.416a3.535,3.535,0,0,1,3.789-3.208,3.535,3.535,0,0,1,3.789,3.208v2.406H7.789Zm3.789,8.02a1.978,1.978,0,0,1-1.629-.8h3.259A1.978,1.978,0,0,1,11.579,16.435Zm5.684-2.406H5.895v-.8a.884.884,0,0,1,.947-.8h9.474a.884.884,0,0,1,.947.8Z" transform="translate(-4 -2)" fill="#fff"/>
    </g>
  </g>
</svg>
